<svg width="33" height="13" viewBox="0 0 33 13" fill="none" xmlns="http://www.w3.org/2000/svg">
<path d="M7.04785 10.209C7.04785 10.6465 7.20964 10.8652 7.5332 10.8652C7.72461 10.8652 7.89779 10.8242 8.05273 10.7422C8.21224 10.6602 8.31478 10.6191 8.36035 10.6191C8.45605 10.6191 8.50391 10.6693 8.50391 10.7695C8.50391 11.1706 8.28971 11.5078 7.86133 11.7812C7.56966 11.9727 7.29167 12.0684 7.02734 12.0684C6.76302 12.0684 6.54883 12.0387 6.38477 11.9795C6.22526 11.9157 6.08626 11.8177 5.96777 11.6855C5.71712 11.4121 5.5918 11.0042 5.5918 10.4619C5.5918 10.0335 5.67155 9.53678 5.83105 8.97168C5.99056 8.40658 6.10677 8.00553 6.17969 7.76855L5.46875 8.84863C3.99674 10.9951 2.75488 12.0684 1.74316 12.0684C1.05501 12.0684 0.601562 11.7812 0.382812 11.207C0.314453 11.0202 0.280273 10.8561 0.280273 10.7148V10.4551C0.280273 9.88086 0.601562 8.82812 1.24414 7.29688L2.66602 3.98828C2.93945 3.33203 3.07617 2.92643 3.07617 2.77148C3.07617 2.61654 3.04883 2.50033 2.99414 2.42285C2.93945 2.34538 2.87793 2.28385 2.80957 2.23828L2.625 2.10156C2.57031 2.0651 2.54297 2.01042 2.54297 1.9375C2.54297 1.86458 2.57943 1.79167 2.65234 1.71875C2.72526 1.64583 2.82096 1.58203 2.93945 1.52734C3.17643 1.42253 3.40885 1.37012 3.63672 1.37012C3.86914 1.37012 4.04688 1.39518 4.16992 1.44531C4.29753 1.49089 4.40234 1.55013 4.48438 1.62305C4.64388 1.77344 4.72363 1.95573 4.72363 2.16992C4.72363 2.37956 4.68262 2.62793 4.60059 2.91504C4.52311 3.20215 4.41829 3.5166 4.28613 3.8584C4.15853 4.19564 4.01042 4.55339 3.8418 4.93164L2.80273 7.21484C2.14193 8.66862 1.81152 9.63021 1.81152 10.0996V10.2021C1.81152 10.6351 1.97559 10.8516 2.30371 10.8516C2.90527 10.8516 3.68685 10.0973 4.64844 8.58887C4.93555 8.14225 5.22266 7.67057 5.50977 7.17383L6.34375 5.64258C7.53776 3.33203 8.22591 2.01497 8.4082 1.69141C8.49935 1.52734 8.62923 1.44531 8.79785 1.44531C8.96647 1.44531 9.10775 1.47038 9.22168 1.52051C9.33561 1.56608 9.43359 1.6276 9.51562 1.70508C9.70703 1.88737 9.75488 2.06966 9.65918 2.25195C9.22624 3.07682 8.69987 4.39616 8.08008 6.20996C7.39193 8.20605 7.04785 9.53906 7.04785 10.209ZM16.0713 10.6191C16.167 10.6191 16.2148 10.6693 16.2148 10.7695C16.2148 11.1615 16.012 11.4987 15.6064 11.7812C15.3376 11.9727 15.0824 12.0684 14.8408 12.0684C14.6038 12.0684 14.4147 12.041 14.2734 11.9863C14.1322 11.9316 14.0046 11.8451 13.8906 11.7266C13.6354 11.4531 13.5078 11.0771 13.5078 10.5986C13.5078 10.5029 13.526 10.3503 13.5625 10.1406C13.1934 10.7103 12.8766 11.1113 12.6123 11.3438C12.0791 11.8268 11.5573 12.0684 11.0469 12.0684C10.2402 12.0684 9.71159 11.7038 9.46094 10.9746C9.36979 10.7057 9.32422 10.3685 9.32422 9.96289C9.32422 9.55729 9.38574 9.14714 9.50879 8.73242C9.63184 8.31771 9.79818 7.9235 10.0078 7.5498C10.222 7.17611 10.4681 6.82975 10.7461 6.51074C11.0286 6.18717 11.3249 5.9069 11.6348 5.66992C12.3001 5.17318 12.9017 4.9248 13.4395 4.9248C13.9772 4.9248 14.4079 5.14355 14.7314 5.58105C15.5244 2.86491 16.1214 1.26302 16.5225 0.775391C16.6911 0.57487 16.8688 0.474609 17.0557 0.474609C17.3656 0.474609 17.6003 0.563477 17.7598 0.741211C17.8099 0.800456 17.835 0.859701 17.835 0.918945C17.835 0.97819 17.7985 1.08757 17.7256 1.24707C17.6527 1.40658 17.5456 1.66406 17.4043 2.01953C16.9987 3.09049 16.7139 3.87435 16.5498 4.37109C16.1305 5.64258 15.848 6.51758 15.7021 6.99609L15.3262 8.26074C15.0026 9.38639 14.8408 10.1019 14.8408 10.4072C14.8408 10.7126 14.9525 10.8652 15.1758 10.8652C15.3809 10.8652 15.5449 10.8379 15.668 10.7832L15.9277 10.6602C15.9779 10.6328 16.0257 10.6191 16.0713 10.6191ZM11.375 11.043C11.8444 11.043 12.3822 10.585 12.9883 9.66895C13.6217 8.72103 14.0638 7.6888 14.3145 6.57227C14.2962 6.26237 14.1663 6.03451 13.9248 5.88867C13.8428 5.83854 13.7174 5.81348 13.5488 5.81348C13.3848 5.81348 13.1911 5.875 12.9678 5.99805C12.749 6.11654 12.5348 6.27832 12.3252 6.4834C12.1201 6.68848 11.9264 6.93001 11.7441 7.20801C11.5664 7.48145 11.4115 7.77311 11.2793 8.08301C10.9922 8.75749 10.8486 9.42057 10.8486 10.0723C10.8486 10.7194 11.0241 11.043 11.375 11.043ZM17.1172 9.60742C17.1354 9.21094 17.2015 8.83268 17.3154 8.47266C17.4294 8.10807 17.582 7.75716 17.7734 7.41992C17.9648 7.07812 18.1882 6.75684 18.4434 6.45605C18.7031 6.15072 18.9834 5.88411 19.2842 5.65625C19.9359 5.16862 20.5944 4.9248 21.2598 4.9248C22.0391 4.9248 22.5586 5.24609 22.8184 5.88867C22.9095 6.10742 22.9528 6.36719 22.9482 6.66797C22.9437 6.96419 22.8867 7.23991 22.7773 7.49512C22.668 7.74577 22.5153 7.97591 22.3193 8.18555C22.1279 8.39062 21.8978 8.5752 21.6289 8.73926C21.3646 8.90332 21.0752 9.04232 20.7607 9.15625C20.1136 9.38411 19.4209 9.5026 18.6826 9.51172C18.6644 9.57552 18.653 9.67122 18.6484 9.79883C18.6439 9.92643 18.6576 10.07 18.6895 10.2295C18.7214 10.3844 18.776 10.5234 18.8535 10.6465C19.0176 10.9199 19.2546 11.0566 19.5645 11.0566C20.0931 11.0566 20.6081 10.9017 21.1094 10.5918C21.2871 10.487 21.4307 10.3799 21.54 10.2705C21.654 10.1566 21.752 10.0996 21.834 10.0996C21.916 10.0996 21.9867 10.1497 22.0459 10.25C22.1097 10.3457 22.1416 10.4551 22.1416 10.5781C22.1416 10.8197 22.0732 11.0293 21.9365 11.207C21.3623 11.7812 20.5078 12.0684 19.373 12.0684C18.7031 12.0684 18.1654 11.8678 17.7598 11.4668C17.304 11.0111 17.0898 10.3913 17.1172 9.60742ZM21.1094 5.83398C20.6309 5.83398 20.1706 6.16211 19.7285 6.81836C19.3548 7.38346 19.054 8.05339 18.8262 8.82812C19.5872 8.75065 20.248 8.44987 20.8086 7.92578C21.3236 7.43359 21.5811 6.96191 21.5811 6.51074C21.5811 6.05957 21.4238 5.83398 21.1094 5.83398ZM28.2598 10.4482C28.2598 9.83301 28.4352 8.88965 28.7861 7.61816C27.6878 7.64551 26.847 7.67741 26.2637 7.71387C26.0859 8.03743 25.9242 8.34505 25.7783 8.63672L25.3545 9.47754C24.7939 10.5804 24.2904 11.3073 23.8438 11.6582C23.502 11.9316 23.1396 12.0684 22.7568 12.0684C22.4652 12.0684 22.2441 11.9727 22.0938 11.7812C22.0391 11.7038 22.0072 11.6309 21.998 11.5625C21.9889 11.4896 22.0049 11.4417 22.0459 11.4189C22.57 11.223 22.9961 10.9245 23.3242 10.5234C23.6113 10.1634 23.8984 9.72363 24.1855 9.2041L24.958 7.82324L24.5273 7.88477C24.2539 7.9349 24.1172 7.8916 24.1172 7.75488C24.1172 7.61816 24.1992 7.48828 24.3633 7.36523C24.6504 7.15104 24.9307 7.00977 25.2041 6.94141L25.498 6.87305C26.2454 5.63802 26.8151 4.77441 27.207 4.28223C27.6035 3.79004 27.9635 3.37988 28.2871 3.05176C28.6152 2.72363 28.9593 2.43424 29.3193 2.18359C30.1077 1.64128 30.8848 1.37012 31.6504 1.37012C31.8828 1.37012 32.04 1.41797 32.1221 1.51367C32.2588 1.66406 32.3021 1.82585 32.252 1.99902C32.2018 2.16764 32.1198 2.41146 32.0059 2.73047C31.2767 4.71745 30.8324 5.94792 30.6729 6.42188C30.7458 6.41732 30.8118 6.41504 30.8711 6.41504H31.0215C31.5319 6.41504 31.8053 6.46517 31.8418 6.56543C31.8509 6.59733 31.8555 6.65658 31.8555 6.74316C31.8555 6.8252 31.8281 6.9209 31.7734 7.03027C31.7233 7.13965 31.639 7.23307 31.5205 7.31055C31.279 7.47461 30.8734 7.57031 30.3037 7.59766C29.9938 8.66862 29.8161 9.40918 29.7705 9.81934C29.7295 10.2295 29.7432 10.5075 29.8115 10.6533C29.8844 10.7946 29.9847 10.8652 30.1123 10.8652C30.2445 10.8652 30.3516 10.8538 30.4336 10.8311C30.5156 10.8037 30.5885 10.7741 30.6523 10.7422L30.8301 10.6602C30.8757 10.6328 30.9212 10.6191 30.9668 10.6191C31.0169 10.6191 31.0579 10.651 31.0898 10.7148C31.1217 10.7741 31.1377 10.8538 31.1377 10.9541C31.1377 11.0544 31.0944 11.1751 31.0078 11.3164C30.9258 11.4531 30.8164 11.5762 30.6797 11.6855C30.3607 11.9408 30.0007 12.0684 29.5996 12.0684C28.9844 12.0684 28.5742 11.7949 28.3691 11.248C28.2962 11.0566 28.2598 10.8857 28.2598 10.7354V10.4482ZM26.8926 6.63379C27.7038 6.52897 28.4557 6.46745 29.1484 6.44922C29.276 6.05729 29.4128 5.66992 29.5586 5.28711L29.9824 4.19336C30.1283 3.84701 30.2718 3.51888 30.4131 3.20898L30.8096 2.36816C29.8617 2.61426 28.9251 3.43229 28 4.82227C27.804 5.11393 27.6126 5.41471 27.4258 5.72461L26.8926 6.63379Z" fill="url(#paint0_linear_24_31)"/>
<defs>
<linearGradient id="paint0_linear_24_31" x1="18.5" y1="2" x2="18.5" y2="12" gradientUnits="userSpaceOnUse">
<stop stop-color="#00427F"/>
<stop offset="1" stop-color="#0D99FF"/>
</linearGradient>
</defs>
</svg>
